# xmcd
#
# Track frame offsets: 
#        150
#        31405
#        63220
#        94552
#        139005
#        150205
#        170007
#
# Disc length: 2724 seconds
#
# Revision: 4
# Processed by: cddbd v1.5.2PL0 Copyright (c) Steve Scherf et al.
# Submitted via: ExactAudioCopyFreeDBPlugin 1.0
#
DISCID=4b0aa207
DTITLE=Raphael Saadiq - All Hits at the House of Blues
DYEAR=2003
DGENRE=Soul
TTITLE0=Still Ray
TTITLE1=Blind Man
TTITLE2=Different Times (ft Ledisi and Goapele)
TTITLE3=Uptown (ft Leslie Wilson)
TTITLE4=You
TTITLE5=Get Involved
TTITLE6=Be Here (ft D'Angelo)
EXTD=
EXTT0=
EXTT1=
EXTT2=
EXTT3=
EXTT4=
EXTT5=
EXTT6=
PLAYORDER=
